<svg width="200" height="200" viewBox="0 0 200 200" fill="none" xmlns="http://www.w3.org/2000/svg">
  <rect width="200" height="200" rx="40" fill="#1976D2" />
  <path d="M100 40C66.8629 40 40 66.8629 40 100C40 133.137 66.8629 160 100 160C133.137 160 160 133.137 160 100C160 66.8629 133.137 40 100 40Z" fill="#7F56D9" fillOpacity="0.4"/>
  <path d="M100 60C78.0086 60 60 78.0086 60 100C60 121.991 78.0086 140 100 140C121.991 140 140 121.991 140 100C140 78.0086 121.991 60 100 60Z" fill="white"/>
  <path d="M100 75C86.1929 75 75 86.1929 75 100C75 113.807 86.1929 125 100 125C113.807 125 125 113.807 125 100C125 86.1929 113.807 75 100 75Z" fill="#1976D2"/>
  <path d="M120 95H105V80C105 77.2386 102.761 75 100 75C97.2386 75 95 77.2386 95 80V95H80C77.2386 95 75 97.2386 75 100C75 102.761 77.2386 105 80 105H95V120C95 122.761 97.2386 125 100 125C102.761 125 105 122.761 105 120V105H120C122.761 105 125 102.761 125 100C125 97.2386 122.761 95 120 95Z" fill="white"/>
</svg>